<?xml version="1.0" encoding="UTF-8"?>
<svg xmlns="http://www.w3.org/2000/svg" xmlns:xlink="http://www.w3.org/1999/xlink" width="395pt" height="182pt" viewBox="0 0 395 182">
<defs>
<g>
<g id="glyph-0-0">
<path d="M 3.984375 -0.90625 C 3.335938 -0.40625 2.9375 -0.117188 2.78125 -0.046875 C 2.53125 0.0664062 2.265625 0.125 1.984375 0.125 C 1.554688 0.125 1.203125 -0.0195312 0.921875 -0.3125 C 0.640625 -0.613281 0.5 -1.003906 0.5 -1.484375 C 0.5 -1.785156 0.566406 -2.050781 0.703125 -2.28125 C 0.890625 -2.582031 1.210938 -2.867188 1.671875 -3.140625 C 2.140625 -3.421875 2.910156 -3.757812 3.984375 -4.15625 L 3.984375 -4.390625 C 3.984375 -5.015625 3.882812 -5.441406 3.6875 -5.671875 C 3.488281 -5.910156 3.203125 -6.03125 2.828125 -6.03125 C 2.535156 -6.03125 2.304688 -5.953125 2.140625 -5.796875 C 1.960938 -5.640625 1.875 -5.460938 1.875 -5.265625 L 1.890625 -4.875 C 1.890625 -4.65625 1.835938 -4.488281 1.734375 -4.375 C 1.628906 -4.269531 1.488281 -4.21875 1.3125 -4.21875 C 1.144531 -4.21875 1.003906 -4.273438 0.890625 -4.390625 C 0.785156 -4.503906 0.734375 -4.664062 0.734375 -4.875 C 0.734375 -5.269531 0.929688 -5.628906 1.328125 -5.953125 C 1.734375 -6.285156 2.300781 -6.453125 3.03125 -6.453125 C 3.582031 -6.453125 4.035156 -6.359375 4.390625 -6.171875 C 4.660156 -6.023438 4.859375 -5.800781 4.984375 -5.5 C 5.066406 -5.300781 5.109375 -4.898438 5.109375 -4.296875 L 5.109375 -2.171875 C 5.109375 -1.578125 5.117188 -1.210938 5.140625 -1.078125 C 5.171875 -0.941406 5.210938 -0.847656 5.265625 -0.796875 C 5.316406 -0.753906 5.375 -0.734375 5.4375 -0.734375 C 5.507812 -0.734375 5.578125 -0.75 5.640625 -0.78125 C 5.734375 -0.84375 5.914062 -1.007812 6.1875 -1.28125 L 6.1875 -0.90625 C 5.675781 -0.21875 5.1875 0.125 4.71875 0.125 C 4.5 0.125 4.320312 0.046875 4.1875 -0.109375 C 4.0625 -0.265625 3.992188 -0.53125 3.984375 -0.90625 Z M 3.984375 -1.34375 L 3.984375 -3.734375 C 3.296875 -3.460938 2.851562 -3.269531 2.65625 -3.15625 C 2.289062 -2.945312 2.03125 -2.734375 1.875 -2.515625 C 1.71875 -2.296875 1.640625 -2.0625 1.640625 -1.8125 C 1.640625 -1.476562 1.738281 -1.203125 1.9375 -0.984375 C 2.132812 -0.765625 2.363281 -0.65625 2.625 -0.65625 C 2.96875 -0.65625 3.421875 -0.882812 3.984375 -1.34375 Z M 3.984375 -1.34375 "/>
</g>
<g id="glyph-0-1">
<path d="M 2.265625 -5.125 C 2.992188 -6.007812 3.691406 -6.453125 4.359375 -6.453125 C 4.703125 -6.453125 4.992188 -6.363281 5.234375 -6.1875 C 5.484375 -6.019531 5.679688 -5.738281 5.828125 -5.34375 C 5.929688 -5.070312 5.984375 -4.65625 5.984375 -4.09375 L 5.984375 -1.421875 C 5.984375 -1.023438 6.015625 -0.753906 6.078125 -0.609375 C 6.128906 -0.492188 6.207031 -0.40625 6.3125 -0.34375 C 6.425781 -0.28125 6.632812 -0.25 6.9375 -0.25 L 6.9375 0 L 3.84375 0 L 3.84375 -0.25 L 3.96875 -0.25 C 4.257812 -0.25 4.460938 -0.289062 4.578125 -0.375 C 4.703125 -0.46875 4.785156 -0.597656 4.828125 -0.765625 C 4.847656 -0.835938 4.859375 -1.054688 4.859375 -1.421875 L 4.859375 -3.984375 C 4.859375 -4.546875 4.78125 -4.957031 4.625 -5.21875 C 4.476562 -5.476562 4.234375 -5.609375 3.890625 -5.609375 C 3.335938 -5.609375 2.796875 -5.3125 2.265625 -4.71875 L 2.265625 -1.421875 C 2.265625 -0.992188 2.289062 -0.726562 2.34375 -0.625 C 2.40625 -0.5 2.488281 -0.40625 2.59375 -0.34375 C 2.707031 -0.28125 2.9375 -0.25 3.28125 -0.25 L 3.28125 0 L 0.1875 0 L 0.1875 -0.25 L 0.328125 -0.25 C 0.640625 -0.25 0.851562 -0.328125 0.96875 -0.484375 C 1.082031 -0.648438 1.140625 -0.960938 1.140625 -1.421875 L 1.140625 -3.734375 C 1.140625 -4.492188 1.117188 -4.953125 1.078125 -5.109375 C 1.046875 -5.273438 0.992188 -5.382812 0.921875 -5.4375 C 0.859375 -5.5 0.765625 -5.53125 0.640625 -5.53125 C 0.515625 -5.53125 0.363281 -5.5 0.1875 -5.4375 L 0.078125 -5.6875 L 1.96875 -6.453125 L 2.265625 -6.453125 Z M 2.265625 -5.125 "/>
</g>
<g id="glyph-0-2">
<path d="M 4.859375 -0.703125 C 4.554688 -0.378906 4.257812 -0.148438 3.96875 -0.015625 C 3.675781 0.117188 3.359375 0.1875 3.015625 0.1875 C 2.335938 0.1875 1.742188 -0.0976562 1.234375 -0.671875 C 0.722656 -1.242188 0.46875 -1.976562 0.46875 -2.875 C 0.46875 -3.769531 0.75 -4.585938 1.3125 -5.328125 C 1.875 -6.078125 2.601562 -6.453125 3.5 -6.453125 C 4.050781 -6.453125 4.503906 -6.273438 4.859375 -5.921875 L 4.859375 -7.078125 C 4.859375 -7.796875 4.84375 -8.234375 4.8125 -8.390625 C 4.78125 -8.554688 4.726562 -8.671875 4.65625 -8.734375 C 4.582031 -8.796875 4.488281 -8.828125 4.375 -8.828125 C 4.257812 -8.828125 4.101562 -8.789062 3.90625 -8.71875 L 3.8125 -8.953125 L 5.6875 -9.71875 L 5.984375 -9.71875 L 5.984375 -2.484375 C 5.984375 -1.742188 6 -1.289062 6.03125 -1.125 C 6.070312 -0.96875 6.128906 -0.859375 6.203125 -0.796875 C 6.273438 -0.734375 6.363281 -0.703125 6.46875 -0.703125 C 6.59375 -0.703125 6.753906 -0.742188 6.953125 -0.828125 L 7.03125 -0.578125 L 5.171875 0.1875 L 4.859375 0.1875 Z M 4.859375 -1.1875 L 4.859375 -4.40625 C 4.828125 -4.71875 4.742188 -5 4.609375 -5.25 C 4.472656 -5.507812 4.289062 -5.703125 4.0625 -5.828125 C 3.84375 -5.960938 3.625 -6.03125 3.40625 -6.03125 C 3.007812 -6.03125 2.65625 -5.847656 2.34375 -5.484375 C 1.925781 -5.015625 1.71875 -4.320312 1.71875 -3.40625 C 1.71875 -2.488281 1.914062 -1.785156 2.3125 -1.296875 C 2.71875 -0.804688 3.164062 -0.5625 3.65625 -0.5625 C 4.070312 -0.5625 4.472656 -0.769531 4.859375 -1.1875 Z M 4.859375 -1.1875 "/>
</g>
<g id="glyph-0-3">
</g>
<g id="glyph-0-4">
<path d="M 4.34375 2.734375 L 4.34375 3 C 3.65625 2.644531 3.082031 2.238281 2.625 1.78125 C 1.96875 1.113281 1.460938 0.332031 1.109375 -0.5625 C 0.753906 -1.457031 0.578125 -2.390625 0.578125 -3.359375 C 0.578125 -4.765625 0.925781 -6.050781 1.625 -7.21875 C 2.320312 -8.382812 3.226562 -9.21875 4.34375 -9.71875 L 4.34375 -9.4375 C 3.78125 -9.125 3.316406 -8.695312 2.953125 -8.15625 C 2.597656 -7.625 2.332031 -6.941406 2.15625 -6.109375 C 1.976562 -5.285156 1.890625 -4.425781 1.890625 -3.53125 C 1.890625 -2.5625 1.96875 -1.675781 2.125 -0.875 C 2.238281 -0.25 2.378906 0.25 2.546875 0.625 C 2.710938 1.007812 2.9375 1.378906 3.21875 1.734375 C 3.507812 2.085938 3.882812 2.421875 4.34375 2.734375 Z M 4.34375 2.734375 "/>
</g>
<g id="glyph-0-5">
<path d="M 1.640625 -8.359375 L 3.890625 -9.46875 L 4.125 -9.46875 L 4.125 -1.640625 C 4.125 -1.117188 4.144531 -0.789062 4.1875 -0.65625 C 4.226562 -0.53125 4.316406 -0.429688 4.453125 -0.359375 C 4.585938 -0.296875 4.867188 -0.257812 5.296875 -0.25 L 5.296875 0 L 1.8125 0 L 1.8125 -0.25 C 2.25 -0.257812 2.53125 -0.296875 2.65625 -0.359375 C 2.78125 -0.429688 2.867188 -0.519531 2.921875 -0.625 C 2.972656 -0.738281 3 -1.078125 3 -1.640625 L 3 -6.640625 C 3 -7.316406 2.972656 -7.75 2.921875 -7.9375 C 2.890625 -8.082031 2.832031 -8.1875 2.75 -8.25 C 2.664062 -8.320312 2.566406 -8.359375 2.453125 -8.359375 C 2.273438 -8.359375 2.039062 -8.289062 1.75 -8.15625 Z M 1.640625 -8.359375 "/>
</g>
<g id="glyph-0-6">
<path d="M 0.3125 -9.4375 L 0.3125 -9.71875 C 1.007812 -9.375 1.585938 -8.972656 2.046875 -8.515625 C 2.691406 -7.847656 3.191406 -7.066406 3.546875 -6.171875 C 3.910156 -5.273438 4.09375 -4.34375 4.09375 -3.375 C 4.09375 -1.957031 3.742188 -0.664062 3.046875 0.5 C 2.347656 1.664062 1.4375 2.5 0.3125 3 L 0.3125 2.734375 C 0.875 2.421875 1.335938 1.992188 1.703125 1.453125 C 2.066406 0.921875 2.332031 0.242188 2.5 -0.578125 C 2.675781 -1.398438 2.765625 -2.265625 2.765625 -3.171875 C 2.765625 -4.140625 2.691406 -5.023438 2.546875 -5.828125 C 2.429688 -6.453125 2.285156 -6.953125 2.109375 -7.328125 C 1.941406 -7.710938 1.71875 -8.078125 1.4375 -8.421875 C 1.15625 -8.773438 0.78125 -9.113281 0.3125 -9.4375 Z M 0.3125 -9.4375 "/>
</g>
<g id="glyph-0-7">
<path d="M 3.5 -6.453125 C 4.445312 -6.453125 5.207031 -6.085938 5.78125 -5.359375 C 6.269531 -4.742188 6.515625 -4.039062 6.515625 -3.25 C 6.515625 -2.6875 6.378906 -2.117188 6.109375 -1.546875 C 5.835938 -0.972656 5.46875 -0.539062 5 -0.25 C 4.53125 0.0390625 4.003906 0.1875 3.421875 0.1875 C 2.484375 0.1875 1.734375 -0.1875 1.171875 -0.9375 C 0.703125 -1.570312 0.46875 -2.28125 0.46875 -3.0625 C 0.46875 -3.644531 0.609375 -4.21875 0.890625 -4.78125 C 1.179688 -5.351562 1.554688 -5.773438 2.015625 -6.046875 C 2.484375 -6.316406 2.976562 -6.453125 3.5 -6.453125 Z M 3.28125 -6 C 3.039062 -6 2.796875 -5.925781 2.546875 -5.78125 C 2.304688 -5.644531 2.113281 -5.394531 1.96875 -5.03125 C 1.820312 -4.664062 1.75 -4.203125 1.75 -3.640625 C 1.75 -2.734375 1.925781 -1.945312 2.28125 -1.28125 C 2.644531 -0.625 3.125 -0.296875 3.71875 -0.296875 C 4.15625 -0.296875 4.519531 -0.476562 4.8125 -0.84375 C 5.101562 -1.207031 5.25 -1.832031 5.25 -2.71875 C 5.25 -3.832031 5.007812 -4.707031 4.53125 -5.34375 C 4.207031 -5.78125 3.789062 -6 3.28125 -6 Z M 3.28125 -6 "/>
</g>
<g id="glyph-0-8">
<path d="M 2.265625 -6.453125 L 2.265625 -5.03125 C 2.796875 -5.976562 3.335938 -6.453125 3.890625 -6.453125 C 4.140625 -6.453125 4.34375 -6.375 4.5 -6.21875 C 4.664062 -6.0625 4.75 -5.882812 4.75 -5.6875 C 4.75 -5.507812 4.6875 -5.359375 4.5625 -5.234375 C 4.445312 -5.109375 4.3125 -5.046875 4.15625 -5.046875 C 3.988281 -5.046875 3.804688 -5.125 3.609375 -5.28125 C 3.410156 -5.445312 3.265625 -5.53125 3.171875 -5.53125 C 3.085938 -5.53125 3 -5.484375 2.90625 -5.390625 C 2.695312 -5.203125 2.484375 -4.894531 2.265625 -4.46875 L 2.265625 -1.46875 C 2.265625 -1.113281 2.3125 -0.847656 2.40625 -0.671875 C 2.457031 -0.554688 2.554688 -0.457031 2.703125 -0.375 C 2.859375 -0.289062 3.078125 -0.25 3.359375 -0.25 L 3.359375 0 L 0.15625 0 L 0.15625 -0.25 C 0.476562 -0.25 0.71875 -0.296875 0.875 -0.390625 C 0.988281 -0.460938 1.066406 -0.582031 1.109375 -0.75 C 1.128906 -0.820312 1.140625 -1.039062 1.140625 -1.40625 L 1.140625 -3.828125 C 1.140625 -4.554688 1.125 -4.988281 1.09375 -5.125 C 1.0625 -5.269531 1.003906 -5.375 0.921875 -5.4375 C 0.847656 -5.5 0.753906 -5.53125 0.640625 -5.53125 C 0.492188 -5.53125 0.332031 -5.5 0.15625 -5.4375 L 0.09375 -5.6875 L 1.984375 -6.453125 Z M 2.265625 -6.453125 "/>
</g>
<g id="glyph-0-9">
<path d="M 0.5 -4.578125 C 0.5 -5.640625 0.660156 -6.550781 0.984375 -7.3125 C 1.304688 -8.070312 1.726562 -8.640625 2.25 -9.015625 C 2.664062 -9.316406 3.09375 -9.46875 3.53125 -9.46875 C 4.238281 -9.46875 4.875 -9.101562 5.4375 -8.375 C 6.144531 -7.476562 6.5 -6.257812 6.5 -4.71875 C 6.5 -3.644531 6.34375 -2.734375 6.03125 -1.984375 C 5.726562 -1.234375 5.332031 -0.6875 4.84375 -0.34375 C 4.363281 0 3.898438 0.171875 3.453125 0.171875 C 2.578125 0.171875 1.84375 -0.351562 1.25 -1.40625 C 0.75 -2.28125 0.5 -3.335938 0.5 -4.578125 Z M 1.84375 -4.40625 C 1.84375 -3.132812 2 -2.09375 2.3125 -1.28125 C 2.570312 -0.601562 2.960938 -0.265625 3.484375 -0.265625 C 3.722656 -0.265625 3.972656 -0.375 4.234375 -0.59375 C 4.503906 -0.820312 4.707031 -1.191406 4.84375 -1.703125 C 5.050781 -2.492188 5.15625 -3.601562 5.15625 -5.03125 C 5.15625 -6.082031 5.046875 -6.960938 4.828125 -7.671875 C 4.671875 -8.191406 4.460938 -8.5625 4.203125 -8.78125 C 4.015625 -8.9375 3.785156 -9.015625 3.515625 -9.015625 C 3.210938 -9.015625 2.9375 -8.875 2.6875 -8.59375 C 2.363281 -8.21875 2.140625 -7.625 2.015625 -6.8125 C 1.898438 -6 1.84375 -5.195312 1.84375 -4.40625 Z M 1.84375 -4.40625 "/>
</g>
</g>
<clipPath id="clip-0">
<path clip-rule="nonzero" d="M 146 0 L 248 0 L 248 52 L 146 52 Z M 146 0 "/>
</clipPath>
<clipPath id="clip-1">
<path clip-rule="nonzero" d="M 0 130 L 70 130 L 70 182 L 0 182 Z M 0 130 "/>
</clipPath>
<clipPath id="clip-2">
<path clip-rule="nonzero" d="M 98 130 L 182 130 L 182 182 L 98 182 Z M 98 130 "/>
</clipPath>
<clipPath id="clip-3">
<path clip-rule="nonzero" d="M 213 130 L 297 130 L 297 182 L 213 182 Z M 213 130 "/>
</clipPath>
<clipPath id="clip-4">
<path clip-rule="nonzero" d="M 325 130 L 395 130 L 395 182 L 325 182 Z M 325 130 "/>
</clipPath>
<clipPath id="clip-5">
<rect x="0" y="0" width="395" height="182"/>
</clipPath>
<g id="source-5" clip-path="url(#clip-5)">
<g clip-path="url(#clip-0)">
<path fill="none" stroke-width="1" stroke-linecap="butt" stroke-linejoin="miter" stroke="rgb(0%, 0%, 0%)" stroke-opacity="1" stroke-miterlimit="10" d="M 278.292969 58 C 278.292969 67.941406 262.042969 76 242 76 C 221.957031 76 205.707031 67.941406 205.707031 58 C 205.707031 48.058594 221.957031 40 242 40 C 262.042969 40 278.292969 48.058594 278.292969 58 " transform="matrix(1, 0, 0, 1, -45, -39)"/>
</g>
<g fill="rgb(0%, 0%, 0%)" fill-opacity="1">
<use xlink:href="#glyph-0-0" x="177" y="22.699219"/>
</g>
<g fill="rgb(0%, 0%, 0%)" fill-opacity="1">
<use xlink:href="#glyph-0-1" x="182.992104" y="22.699219"/>
</g>
<g fill="rgb(0%, 0%, 0%)" fill-opacity="1">
<use xlink:href="#glyph-0-2" x="189.740222" y="22.699219"/>
</g>
<g fill="rgb(0%, 0%, 0%)" fill-opacity="1">
<use xlink:href="#glyph-0-3" x="196.48834" y="22.699219"/>
</g>
<g fill="rgb(0%, 0%, 0%)" fill-opacity="1">
<use xlink:href="#glyph-0-4" x="200.240405" y="22.699219"/>
</g>
<g fill="rgb(0%, 0%, 0%)" fill-opacity="1">
<use xlink:href="#glyph-0-5" x="204.734483" y="22.699219"/>
</g>
<g fill="rgb(0%, 0%, 0%)" fill-opacity="1">
<use xlink:href="#glyph-0-6" x="211.482601" y="22.699219"/>
</g>
<path fill="none" stroke-width="1" stroke-linecap="butt" stroke-linejoin="miter" stroke="rgb(0%, 0%, 0%)" stroke-opacity="1" stroke-miterlimit="10" d="M 213.59375 130 C 213.59375 139.941406 199.898438 148 183 148 C 166.101562 148 152.40625 139.941406 152.40625 130 C 152.40625 120.058594 166.101562 112 183 112 C 199.898438 112 213.59375 120.058594 213.59375 130 " transform="matrix(1, 0, 0, 1, -45, -39)"/>
<g fill="rgb(0%, 0%, 0%)" fill-opacity="1">
<use xlink:href="#glyph-0-7" x="122.5" y="94.699219"/>
</g>
<g fill="rgb(0%, 0%, 0%)" fill-opacity="1">
<use xlink:href="#glyph-0-8" x="129.248118" y="94.699219"/>
</g>
<g fill="rgb(0%, 0%, 0%)" fill-opacity="1">
<use xlink:href="#glyph-0-3" x="133.756196" y="94.699219"/>
</g>
<g fill="rgb(0%, 0%, 0%)" fill-opacity="1">
<use xlink:href="#glyph-0-4" x="137.494261" y="94.699219"/>
</g>
<g fill="rgb(0%, 0%, 0%)" fill-opacity="1">
<use xlink:href="#glyph-0-5" x="142.00234" y="94.699219"/>
</g>
<g fill="rgb(0%, 0%, 0%)" fill-opacity="1">
<use xlink:href="#glyph-0-6" x="148.750457" y="94.699219"/>
</g>
<path fill="none" stroke-width="1" stroke-linecap="butt" stroke-linejoin="miter" stroke="rgb(0%, 0%, 0%)" stroke-opacity="1" stroke-miterlimit="10" d="M 228.613281 74.882812 C 218.820312 86.5 205.613281 102.171875 195.929688 113.660156 " transform="matrix(1, 0, 0, 1, -45, -39)"/>
<path fill="none" stroke-width="1" stroke-linecap="butt" stroke-linejoin="miter" stroke="rgb(0%, 0%, 0%)" stroke-opacity="1" stroke-miterlimit="10" d="M 332.59375 130 C 332.59375 139.941406 318.898438 148 302 148 C 285.101562 148 271.40625 139.941406 271.40625 130 C 271.40625 120.058594 285.101562 112 302 112 C 318.898438 112 332.59375 120.058594 332.59375 130 " transform="matrix(1, 0, 0, 1, -45, -39)"/>
<g fill="rgb(0%, 0%, 0%)" fill-opacity="1">
<use xlink:href="#glyph-0-7" x="241.5" y="94.699219"/>
</g>
<g fill="rgb(0%, 0%, 0%)" fill-opacity="1">
<use xlink:href="#glyph-0-8" x="248.248118" y="94.699219"/>
</g>
<g fill="rgb(0%, 0%, 0%)" fill-opacity="1">
<use xlink:href="#glyph-0-3" x="252.756196" y="94.699219"/>
</g>
<g fill="rgb(0%, 0%, 0%)" fill-opacity="1">
<use xlink:href="#glyph-0-4" x="256.494261" y="94.699219"/>
</g>
<g fill="rgb(0%, 0%, 0%)" fill-opacity="1">
<use xlink:href="#glyph-0-5" x="261.00234" y="94.699219"/>
</g>
<g fill="rgb(0%, 0%, 0%)" fill-opacity="1">
<use xlink:href="#glyph-0-6" x="267.750458" y="94.699219"/>
</g>
<path fill="none" stroke-width="1" stroke-linecap="butt" stroke-linejoin="miter" stroke="rgb(0%, 0%, 0%)" stroke-opacity="1" stroke-miterlimit="10" d="M 255.613281 74.882812 C 265.574219 86.5 279.003906 102.171875 288.851562 113.660156 " transform="matrix(1, 0, 0, 1, -45, -39)"/>
<g clip-path="url(#clip-1)">
<path fill="none" stroke-width="1" stroke-linecap="butt" stroke-linejoin="miter" stroke="rgb(0%, 0%, 0%)" stroke-opacity="1" stroke-miterlimit="10" d="M 100 202 C 100 211.941406 87.910156 220 73 220 C 58.089844 220 46 211.941406 46 202 C 46 192.058594 58.089844 184 73 184 C 87.910156 184 100 192.058594 100 202 " transform="matrix(1, 0, 0, 1, -45, -39)"/>
</g>
<g fill="rgb(0%, 0%, 0%)" fill-opacity="1">
<use xlink:href="#glyph-0-9" x="24.5" y="166.699219"/>
</g>
<path fill="none" stroke-width="1" stroke-linecap="butt" stroke-linejoin="miter" stroke="rgb(0%, 0%, 0%)" stroke-opacity="1" stroke-miterlimit="10" d="M 163.078125 143.675781 C 142.898438 156.519531 111.894531 176.246094 92.035156 188.886719 " transform="matrix(1, 0, 0, 1, -45, -39)"/>
<g clip-path="url(#clip-2)">
<path fill="none" stroke-width="1" stroke-linecap="butt" stroke-linejoin="miter" stroke="rgb(0%, 0%, 0%)" stroke-opacity="1" stroke-miterlimit="10" d="M 212 202 C 212 211.941406 199.910156 220 185 220 C 170.089844 220 158 211.941406 158 202 C 158 192.058594 170.089844 184 185 184 C 199.910156 184 212 192.058594 212 202 " transform="matrix(1, 0, 0, 1, -45, -39)"/>
</g>
<g fill="rgb(0%, 0%, 0%)" fill-opacity="1">
<use xlink:href="#glyph-0-5" x="136.5" y="166.699219"/>
</g>
<path fill="none" stroke-width="1" stroke-linecap="butt" stroke-linejoin="miter" stroke="rgb(0%, 0%, 0%)" stroke-opacity="1" stroke-miterlimit="10" d="M 183.496094 148.304688 C 183.804688 159.152344 184.203125 173.082031 184.511719 183.894531 " transform="matrix(1, 0, 0, 1, -45, -39)"/>
<g clip-path="url(#clip-3)">
<path fill="none" stroke-width="1" stroke-linecap="butt" stroke-linejoin="miter" stroke="rgb(0%, 0%, 0%)" stroke-opacity="1" stroke-miterlimit="10" d="M 327 202 C 327 211.941406 314.910156 220 300 220 C 285.089844 220 273 211.941406 273 202 C 273 192.058594 285.089844 184 300 184 C 314.910156 184 327 192.058594 327 202 " transform="matrix(1, 0, 0, 1, -45, -39)"/>
</g>
<g fill="rgb(0%, 0%, 0%)" fill-opacity="1">
<use xlink:href="#glyph-0-5" x="251.5" y="166.699219"/>
</g>
<path fill="none" stroke-width="1" stroke-linecap="butt" stroke-linejoin="miter" stroke="rgb(0%, 0%, 0%)" stroke-opacity="1" stroke-miterlimit="10" d="M 301.503906 148.304688 C 301.195312 159.152344 300.796875 173.082031 300.488281 183.894531 " transform="matrix(1, 0, 0, 1, -45, -39)"/>
<g clip-path="url(#clip-4)">
<path fill="none" stroke-width="1" stroke-linecap="butt" stroke-linejoin="miter" stroke="rgb(0%, 0%, 0%)" stroke-opacity="1" stroke-miterlimit="10" d="M 439 202 C 439 211.941406 426.910156 220 412 220 C 397.089844 220 385 211.941406 385 202 C 385 192.058594 397.089844 184 412 184 C 426.910156 184 439 192.058594 439 202 " transform="matrix(1, 0, 0, 1, -45, -39)"/>
</g>
<g fill="rgb(0%, 0%, 0%)" fill-opacity="1">
<use xlink:href="#glyph-0-5" x="363.5" y="166.699219"/>
</g>
<path fill="none" stroke-width="1" stroke-linecap="butt" stroke-linejoin="miter" stroke="rgb(0%, 0%, 0%)" stroke-opacity="1" stroke-miterlimit="10" d="M 321.921875 143.675781 C 342.101562 156.519531 373.105469 176.246094 392.964844 188.886719 " transform="matrix(1, 0, 0, 1, -45, -39)"/>
</g>
</defs>
<use xlink:href="#source-5"/>
</svg>
