<?xml version="1.0" encoding="UTF-8"?>
<svg xmlns="http://www.w3.org/2000/svg" xmlns:xlink="http://www.w3.org/1999/xlink" width="92.9909pt" height="100.1405pt" viewBox="0 0 92.9909 100.1405">
<defs>
<g>
<g id="glyph-0-0">
<path d="M 5.46875 -4.46875 C 5.46875 -5.21875 5.078125 -5.265625 4.984375 -5.265625 C 4.703125 -5.265625 4.4375 -4.984375 4.4375 -4.75 C 4.4375 -4.609375 4.515625 -4.515625 4.5625 -4.46875 C 4.6875 -4.359375 5 -4.046875 5 -3.421875 C 5 -2.921875 4.28125 -0.125 2.84375 -0.125 C 2.109375 -0.125 1.96875 -0.734375 1.96875 -1.171875 C 1.96875 -1.765625 2.25 -2.609375 2.5625 -3.46875 C 2.765625 -3.953125 2.8125 -4.078125 2.8125 -4.3125 C 2.8125 -4.8125 2.453125 -5.265625 1.859375 -5.265625 C 0.765625 -5.265625 0.328125 -3.53125 0.328125 -3.4375 C 0.328125 -3.390625 0.375 -3.328125 0.453125 -3.328125 C 0.5625 -3.328125 0.578125 -3.375 0.625 -3.546875 C 0.90625 -4.578125 1.375 -5.03125 1.828125 -5.03125 C 1.9375 -5.03125 2.140625 -5.03125 2.140625 -4.640625 C 2.140625 -4.328125 2.015625 -3.984375 1.828125 -3.53125 C 1.25 -2 1.25 -1.625 1.25 -1.34375 C 1.25 -1.078125 1.296875 -0.578125 1.65625 -0.25 C 2.09375 0.125 2.6875 0.125 2.796875 0.125 C 4.78125 0.125 5.46875 -3.796875 5.46875 -4.46875 Z M 5.46875 -4.46875 "/>
</g>
<g id="glyph-1-0">
<path d="M 2.375 -4.96875 C 2.375 -5.140625 2.25 -5.28125 2.0625 -5.28125 C 1.859375 -5.28125 1.625 -5.078125 1.625 -4.84375 C 1.625 -4.671875 1.75 -4.546875 1.9375 -4.546875 C 2.140625 -4.546875 2.375 -4.734375 2.375 -4.96875 Z M 1.21875 -2.046875 L 0.78125 -0.953125 C 0.734375 -0.828125 0.703125 -0.734375 0.703125 -0.59375 C 0.703125 -0.203125 1 0.078125 1.421875 0.078125 C 2.203125 0.078125 2.53125 -1.03125 2.53125 -1.140625 C 2.53125 -1.21875 2.46875 -1.25 2.40625 -1.25 C 2.3125 -1.25 2.296875 -1.1875 2.265625 -1.109375 C 2.09375 -0.46875 1.765625 -0.140625 1.4375 -0.140625 C 1.34375 -0.140625 1.25 -0.1875 1.25 -0.390625 C 1.25 -0.59375 1.3125 -0.734375 1.40625 -0.984375 C 1.484375 -1.1875 1.5625 -1.40625 1.65625 -1.625 L 1.90625 -2.265625 C 1.96875 -2.453125 2.078125 -2.703125 2.078125 -2.84375 C 2.078125 -3.234375 1.75 -3.515625 1.34375 -3.515625 C 0.578125 -3.515625 0.234375 -2.40625 0.234375 -2.296875 C 0.234375 -2.21875 0.296875 -2.1875 0.359375 -2.1875 C 0.46875 -2.1875 0.46875 -2.234375 0.5 -2.3125 C 0.71875 -3.078125 1.078125 -3.296875 1.328125 -3.296875 C 1.4375 -3.296875 1.515625 -3.25 1.515625 -3.03125 C 1.515625 -2.953125 1.5 -2.84375 1.421875 -2.59375 Z M 1.21875 -2.046875 "/>
</g>
</g>
<clipPath id="clip-0">
<path clip-rule="nonzero" d="M 0 19 L 92.992188 19 L 92.992188 90 L 0 90 Z M 0 19 "/>
</clipPath>
<clipPath id="clip-1">
<path clip-rule="nonzero" d="M 0 3 L 92.992188 3 L 92.992188 100.140625 L 0 100.140625 Z M 0 3 "/>
</clipPath>
<clipPath id="clip-2">
<path clip-rule="nonzero" d="M 0 0 L 92.992188 0 L 92.992188 91 L 0 91 Z M 0 0 "/>
</clipPath>
<clipPath id="clip-3">
<path clip-rule="nonzero" d="M 0 8 L 92.992188 8 L 92.992188 100 L 0 100 Z M 0 8 "/>
</clipPath>
<clipPath id="clip-4">
<path clip-rule="nonzero" d="M 72 2 L 76 2 L 76 8.941406 L 72 8.941406 Z M 72 2 "/>
</clipPath>
<clipPath id="clip-5">
<path clip-rule="nonzero" d="M 0 8 L 92.992188 8 L 92.992188 100 L 0 100 Z M 0 8 "/>
</clipPath>
<clipPath id="clip-6">
<path clip-rule="nonzero" d="M 16 10 L 20 10 L 20 16.941406 L 16 16.941406 Z M 16 10 "/>
</clipPath>
</defs>
<path fill="none" stroke-width="1.2" stroke-linecap="butt" stroke-linejoin="miter" stroke="rgb(0%, 0%, 0%)" stroke-opacity="1" stroke-miterlimit="10" d="M 62.156381 65.74475 C 61.382944 64.795531 61.8556 62.455687 63.445444 60.955687 " transform="matrix(1, 0, 0, -1, -21.1681, 118.151)"/>
<path fill="none" stroke-width="1.2" stroke-linecap="butt" stroke-linejoin="miter" stroke="rgb(0%, 0%, 0%)" stroke-opacity="1" stroke-miterlimit="10" d="M 60.875131 66.967406 C 59.937631 64.799437 60.156381 62.303344 61.453256 60.326781 " transform="matrix(1, 0, 0, -1, -21.1681, 118.151)"/>
<path fill-rule="nonzero" fill="rgb(29.399109%, 82.699585%, 0%)" fill-opacity="0.2" d="M 11.101562 82.210938 C -4.375 62.589844 -1.015625 34.132812 18.609375 18.65625 C 37.808594 3.511719 65.5625 6.363281 81.289062 25.085938 "/>
<path fill="none" stroke-width="2" stroke-linecap="butt" stroke-linejoin="miter" stroke="rgb(23.498535%, 38.798523%, 23.498535%)" stroke-opacity="1" stroke-miterlimit="10" d="M 32.269662 35.940062 C 16.7931 55.561156 20.152475 84.018187 39.777475 99.49475 C 58.976694 114.639281 86.7306 111.787719 102.457162 93.065062 " transform="matrix(1, 0, 0, -1, -21.1681, 118.151)"/>
<g clip-path="url(#clip-0)">
<path fill="none" stroke-width="1.181" stroke-linecap="butt" stroke-linejoin="miter" stroke="rgb(0%, 0%, 100%)" stroke-opacity="1" stroke-miterlimit="10" d="M 108.929819 45.068969 L 26.129037 81.670531 " transform="matrix(1, 0, 0, -1, -21.1681, 118.151)"/>
</g>
<g clip-path="url(#clip-1)">
<path fill="none" stroke-width="0.4" stroke-linecap="butt" stroke-linejoin="miter" stroke="rgb(0%, 0%, 0%)" stroke-opacity="1" stroke-miterlimit="10" d="M 113.058725 63.9635 C 113.058725 88.955687 92.797006 109.217406 67.804819 109.217406 C 42.812631 109.217406 22.550912 88.959594 22.550912 63.9635 C 22.550912 38.971312 42.808725 18.709594 67.804819 18.709594 C 92.797006 18.709594 113.058725 38.971312 113.058725 63.9635 Z M 113.058725 63.9635 " transform="matrix(1, 0, 0, -1, -21.1681, 118.151)"/>
</g>
<g clip-path="url(#clip-2)">
<path fill="none" stroke-width="1.2" stroke-linecap="butt" stroke-linejoin="miter" stroke="rgb(0%, 0%, 100%)" stroke-opacity="1" stroke-miterlimit="10" d="M 108.925912 45.072875 C 119.390756 67.850219 109.406381 94.795531 86.629037 105.260375 C 63.851694 115.721312 36.906381 105.736937 26.441537 82.9635 C 26.367319 82.799437 26.2931 82.635375 26.218881 82.467406 " transform="matrix(1, 0, 0, -1, -21.1681, 118.151)"/>
</g>
<g clip-path="url(#clip-3)">
<path fill="none" stroke-width="1.2" stroke-linecap="butt" stroke-linejoin="miter" stroke="rgb(23.498535%, 38.798523%, 23.498535%)" stroke-opacity="1" stroke-miterlimit="10" d="M 32.269662 35.940062 L 102.457162 93.065062 " transform="matrix(1, 0, 0, -1, -21.1681, 118.151)"/>
<path fill="none" stroke-width="1.2" stroke-linecap="butt" stroke-linejoin="miter" stroke="rgb(23.498535%, 38.798523%, 23.498535%)" stroke-opacity="1" stroke-miterlimit="10" d="M 32.269662 35.940062 L 102.457162 93.065062 " transform="matrix(1, 0, 0, -1, -21.1681, 118.151)"/>
</g>
<path fill="none" stroke-width="1.2" stroke-linecap="butt" stroke-linejoin="miter" stroke="rgb(0%, 0%, 0%)" stroke-opacity="1" stroke-miterlimit="10" d="M 74.461069 60.86975 C 75.757944 63.666625 75.172006 66.975219 72.996225 69.154906 " transform="matrix(1, 0, 0, -1, -21.1681, 118.151)"/>
<path fill-rule="nonzero" fill="rgb(0%, 31.298828%, 100%)" fill-opacity="0.2" d="M 87.757812 73.078125 C 98.191406 50.367188 88.238281 23.5 65.527344 13.066406 C 42.816406 2.632812 15.945312 12.585938 5.511719 35.296875 C 5.304688 35.75 5.105469 36.210938 4.910156 36.671875 "/>
<g fill="rgb(54.499817%, 0%, 0%)" fill-opacity="1">
<use xlink:href="#glyph-0-0" x="66.8319" y="6.148"/>
</g>
<g clip-path="url(#clip-4)">
<g fill="rgb(54.499817%, 0%, 0%)" fill-opacity="1">
<use xlink:href="#glyph-1-0" x="72.4909" y="7.941"/>
</g>
</g>
<path fill="none" stroke-width="0.4" stroke-linecap="butt" stroke-linejoin="miter" stroke="rgb(54.499817%, 0%, 0%)" stroke-opacity="1" stroke-miterlimit="10" d="M 66.519662 63.815062 L 86.371225 105.233031 " transform="matrix(1, 0, 0, -1, -21.1681, 118.151)"/>
<path fill-rule="nonzero" fill="rgb(54.499817%, 0%, 0%)" fill-opacity="1" stroke-width="0.4" stroke-linecap="butt" stroke-linejoin="miter" stroke="rgb(54.499817%, 0%, 0%)" stroke-opacity="1" stroke-miterlimit="10" d="M 86.371225 105.233031 L 81.242319 99.928344 L 85.445444 97.912719 Z M 86.371225 105.233031 " transform="matrix(1, 0, 0, -1, -21.1681, 118.151)"/>
<path fill-rule="nonzero" fill="rgb(100%, 84.298706%, 0%)" fill-opacity="1" d="M 66.960938 12.890625 C 66.960938 12.0625 66.289062 11.390625 65.460938 11.390625 C 64.632812 11.390625 63.960938 12.0625 63.960938 12.890625 C 63.960938 13.71875 64.632812 14.390625 65.460938 14.390625 C 66.289062 14.390625 66.960938 13.71875 66.960938 12.890625 "/>
<path fill-rule="evenodd" fill="rgb(54.499817%, 0%, 0%)" fill-opacity="1" d="M 67.261719 12.890625 C 67.261719 11.898438 66.457031 11.089844 65.460938 11.089844 C 64.46875 11.089844 63.660156 11.898438 63.660156 12.890625 C 63.660156 13.886719 64.46875 14.691406 65.460938 14.691406 C 66.457031 14.691406 67.261719 13.886719 67.261719 12.890625 M 66.660156 12.890625 C 66.660156 12.226562 66.125 11.691406 65.460938 11.691406 C 64.796875 11.691406 64.261719 12.226562 64.261719 12.890625 C 64.261719 13.554688 64.796875 14.089844 65.460938 14.089844 C 66.125 14.089844 66.660156 13.554688 66.660156 12.890625 "/>
<g clip-path="url(#clip-5)">
<path fill="none" stroke-width="1.2" stroke-linecap="butt" stroke-linejoin="miter" stroke="rgb(0%, 0%, 0%)" stroke-opacity="1" stroke-miterlimit="10" d="M 32.269662 35.940062 L 102.457162 93.065062 " transform="matrix(1, 0, 0, -1, -21.1681, 118.151)"/>
</g>
<path fill-rule="nonzero" fill="rgb(0%, 50.099182%, 0%)" fill-opacity="1" stroke-width="0.4" stroke-linecap="butt" stroke-linejoin="miter" stroke="rgb(0%, 0%, 0%)" stroke-opacity="1" stroke-miterlimit="10" d="M 66.519662 63.815062 L 39.300912 99.111937 " transform="matrix(1, 0, 0, -1, -21.1681, 118.151)"/>
<path fill-rule="nonzero" fill="rgb(0%, 0%, 0%)" fill-opacity="1" stroke-width="0.4" stroke-linecap="butt" stroke-linejoin="miter" stroke="rgb(0%, 0%, 0%)" stroke-opacity="1" stroke-miterlimit="10" d="M 39.300912 99.111937 L 41.726694 92.147094 L 45.4181 94.99475 Z M 39.300912 99.111937 " transform="matrix(1, 0, 0, -1, -21.1681, 118.151)"/>
<path fill="none" stroke-width="1.2" stroke-linecap="butt" stroke-linejoin="miter" stroke="rgb(54.499817%, 0%, 54.499817%)" stroke-opacity="1" stroke-miterlimit="10" d="M 69.871225 70.80725 C 68.425912 71.8385 65.402475 71.490844 62.429819 69.154906 " transform="matrix(1, 0, 0, -1, -21.1681, 118.151)"/>
<path fill-rule="nonzero" fill="rgb(54.499817%, 0%, 54.499817%)" fill-opacity="1" stroke-width="0.12" stroke-linecap="butt" stroke-linejoin="miter" stroke="rgb(54.499817%, 0%, 54.499817%)" stroke-opacity="1" stroke-miterlimit="10" d="M 67.191537 79.393187 L 69.722787 79.393187 C 69.933725 79.393187 70.445444 79.393187 70.445444 79.901 C 70.445444 80.264281 70.144662 80.264281 69.875131 80.264281 L 65.652475 80.264281 C 65.351694 80.264281 64.777475 80.264281 64.113412 79.55725 C 63.601694 79.018187 63.179819 78.299437 63.179819 78.205687 C 63.179819 78.190062 63.179819 78.05725 63.363412 78.05725 C 63.4806 78.05725 63.51185 78.115844 63.601694 78.236937 C 64.3556 79.393187 65.19935 79.393187 65.531381 79.393187 L 66.769662 79.393187 C 66.047006 76.990844 65.441537 75.084594 65.2931 74.572875 C 65.2306 74.389281 65.140756 74.076781 65.140756 74.018187 C 65.140756 73.850219 65.26185 73.611937 65.593881 73.611937 C 66.07435 73.611937 66.164194 74.033812 66.195444 74.256469 Z M 67.191537 79.393187 " transform="matrix(1, 0, 0, -1, -21.1681, 118.151)"/>
<g fill="rgb(0%, 0%, 54.499817%)" fill-opacity="1">
<use xlink:href="#glyph-0-0" x="10.8319" y="14.148"/>
</g>
<g clip-path="url(#clip-6)">
<g fill="rgb(0%, 0%, 54.499817%)" fill-opacity="1">
<use xlink:href="#glyph-1-0" x="16.4909" y="15.941"/>
</g>
</g>
<path fill-rule="nonzero" fill="rgb(100%, 84.298706%, 0%)" fill-opacity="1" d="M 19.628906 19.039062 C 19.628906 18.210938 18.957031 17.539062 18.128906 17.539062 C 17.300781 17.539062 16.628906 18.210938 16.628906 19.039062 C 16.628906 19.867188 17.300781 20.539062 18.128906 20.539062 C 18.957031 20.539062 19.628906 19.867188 19.628906 19.039062 "/>
<path fill-rule="evenodd" fill="rgb(0%, 0%, 54.499817%)" fill-opacity="1" d="M 19.929688 19.039062 C 19.929688 18.042969 19.125 17.238281 18.128906 17.238281 C 17.136719 17.238281 16.328125 18.042969 16.328125 19.039062 C 16.328125 20.03125 17.136719 20.839844 18.128906 20.839844 C 19.125 20.839844 19.929688 20.03125 19.929688 19.039062 M 19.328125 19.039062 C 19.328125 18.375 18.792969 17.839844 18.128906 17.839844 C 17.464844 17.839844 16.929688 18.375 16.929688 19.039062 C 16.929688 19.699219 17.464844 20.238281 18.128906 20.238281 C 18.792969 20.238281 19.328125 19.699219 19.328125 19.039062 "/>
<path fill="none" stroke-width="1.2" stroke-linecap="butt" stroke-linejoin="miter" stroke="rgb(0%, 0%, 0%)" stroke-opacity="1" stroke-miterlimit="10" d="M 72.718881 61.568969 C 73.707162 63.596312 73.347787 66.022094 71.816537 67.678344 " transform="matrix(1, 0, 0, -1, -21.1681, 118.151)"/>
<path fill-rule="nonzero" fill="rgb(0%, 100%, 0%)" fill-opacity="1" d="M 46.851562 54.335938 C 46.851562 53.507812 46.179688 52.835938 45.351562 52.835938 C 44.523438 52.835938 43.851562 53.507812 43.851562 54.335938 C 43.851562 55.164062 44.523438 55.835938 45.351562 55.835938 C 46.179688 55.835938 46.851562 55.164062 46.851562 54.335938 "/>
<path fill-rule="evenodd" fill="rgb(100%, 64.698792%, 0%)" fill-opacity="1" d="M 47.152344 54.335938 C 47.152344 53.339844 46.34375 52.535156 45.351562 52.535156 C 44.355469 52.535156 43.550781 53.339844 43.550781 54.335938 C 43.550781 55.328125 44.355469 56.136719 45.351562 56.136719 C 46.34375 56.136719 47.152344 55.328125 47.152344 54.335938 M 46.550781 54.335938 C 46.550781 53.671875 46.015625 53.136719 45.351562 53.136719 C 44.6875 53.136719 44.152344 53.671875 44.152344 54.335938 C 44.152344 55 44.6875 55.535156 45.351562 55.535156 C 46.015625 55.535156 46.550781 55 46.550781 54.335938 "/>
</svg>
