<?xml version="1.0" encoding="UTF-8"?>
<svg xmlns="http://www.w3.org/2000/svg" xmlns:xlink="http://www.w3.org/1999/xlink" width="93.9139pt" height="92.9568pt" viewBox="0 0 93.9139 92.9568">
<defs>
<g>
<g id="glyph-0-0">
<path d="M 5.546875 -1.3125 C 5.359375 -1.140625 5.296875 -1.078125 5.21875 -0.984375 C 4.859375 -0.609375 4.703125 -0.484375 4.59375 -0.484375 C 4.5 -0.484375 4.421875 -0.5625 4.421875 -0.640625 C 4.421875 -0.890625 4.921875 -2.921875 5.484375 -4.984375 C 5.515625 -5.109375 5.53125 -5.125 5.5625 -5.234375 L 5.46875 -5.265625 L 4.75 -5.1875 L 4.703125 -5.15625 L 4.578125 -4.578125 C 4.484375 -5.015625 4.140625 -5.265625 3.625 -5.265625 C 2.046875 -5.265625 0.203125 -3.078125 0.203125 -1.1875 C 0.203125 -0.359375 0.65625 0.125 1.421875 0.125 C 2.265625 0.125 2.765625 -0.265625 3.828125 -1.75 C 3.578125 -0.8125 3.546875 -0.65625 3.546875 -0.375 C 3.546875 -0.03125 3.6875 0.125 4.03125 0.125 C 4.5 0.125 4.8125 -0.109375 5.6875 -1.1875 Z M 3.6875 -5.015625 C 4.09375 -4.984375 4.359375 -4.703125 4.359375 -4.28125 C 4.359375 -3.28125 3.765625 -1.859375 2.9375 -0.984375 C 2.65625 -0.65625 2.25 -0.453125 1.90625 -0.453125 C 1.484375 -0.453125 1.203125 -0.796875 1.203125 -1.34375 C 1.203125 -2 1.65625 -3.234375 2.171875 -3.96875 C 2.65625 -4.65625 3.21875 -5.046875 3.6875 -5.015625 Z M 3.6875 -5.015625 "/>
</g>
<g id="glyph-0-1">
<path d="M 1.3125 -7.6875 C 2.015625 -7.65625 2.09375 -7.625 2.09375 -7.359375 C 2.09375 -7.25 2.0625 -7.109375 1.984375 -6.84375 C 1.953125 -6.765625 1.9375 -6.6875 1.921875 -6.625 L 1.90625 -6.53125 L 0.28125 -0.546875 L 0.28125 -0.5 C 0.28125 -0.234375 1.1875 0.125 1.859375 0.125 C 3.671875 0.125 5.65625 -1.953125 5.65625 -3.84375 C 5.65625 -4.671875 5.0625 -5.265625 4.265625 -5.265625 C 3.4375 -5.265625 2.8125 -4.78125 1.953125 -3.46875 C 2.578125 -5.734375 2.671875 -6.0625 3.203125 -8.109375 L 3.140625 -8.15625 C 2.546875 -8.0625 2.109375 -7.984375 1.3125 -7.890625 Z M 3.796875 -4.6875 C 4.3125 -4.6875 4.640625 -4.296875 4.640625 -3.65625 C 4.640625 -2.875 4.03125 -1.59375 3.328125 -0.84375 C 2.875 -0.390625 2.359375 -0.140625 1.859375 -0.140625 C 1.484375 -0.140625 1.296875 -0.28125 1.296875 -0.546875 C 1.296875 -1.265625 1.65625 -2.421875 2.15625 -3.3125 C 2.6875 -4.234375 3.234375 -4.6875 3.796875 -4.6875 Z M 3.796875 -4.6875 "/>
</g>
<g id="glyph-0-2">
<path d="M 4.1875 -1.265625 C 3.53125 -0.5625 3.0625 -0.296875 2.46875 -0.296875 C 1.796875 -0.296875 1.390625 -0.8125 1.390625 -1.65625 C 1.390625 -2.671875 1.8125 -3.734375 2.46875 -4.453125 C 2.828125 -4.8125 3.296875 -5.015625 3.765625 -5.015625 C 4.046875 -5.015625 4.21875 -4.921875 4.21875 -4.78125 C 4.21875 -4.71875 4.203125 -4.65625 4.140625 -4.546875 C 4.0625 -4.40625 4.046875 -4.3125 4.046875 -4.203125 C 4.046875 -3.921875 4.21875 -3.75 4.5 -3.75 C 4.828125 -3.75 5.078125 -4 5.078125 -4.296875 C 5.078125 -4.859375 4.546875 -5.265625 3.828125 -5.265625 C 2.03125 -5.265625 0.359375 -3.53125 0.359375 -1.65625 C 0.359375 -0.53125 1 0.125 2.109375 0.125 C 3 0.125 3.65625 -0.234375 4.375 -1.140625 Z M 4.1875 -1.265625 "/>
</g>
<g id="glyph-0-3">
<path d="M 5.53125 -1.328125 C 4.890625 -0.578125 4.75 -0.484375 4.546875 -0.484375 C 4.4375 -0.484375 4.34375 -0.578125 4.34375 -0.71875 C 4.34375 -0.890625 4.71875 -2.34375 5.109375 -3.65625 C 5.4375 -4.75 5.6875 -5.71875 6.296875 -8.109375 L 6.234375 -8.15625 C 5.609375 -8.03125 5.171875 -7.953125 4.40625 -7.890625 L 4.40625 -7.6875 C 5.0625 -7.65625 5.15625 -7.625 5.15625 -7.375 C 5.15625 -7.21875 5.140625 -7.140625 4.96875 -6.53125 L 4.453125 -4.578125 C 4.34375 -5.078125 4.140625 -5.265625 3.671875 -5.265625 C 2.109375 -5.265625 0.171875 -3.03125 0.171875 -1.234375 C 0.171875 -0.375 0.65625 0.125 1.4375 0.125 C 2.25 0.125 2.765625 -0.25 3.578125 -1.453125 C 3.453125 -0.84375 3.4375 -0.65625 3.4375 -0.375 C 3.4375 -0.0625 3.640625 0.15625 3.9375 0.15625 C 4.4375 0.15625 5.0625 -0.328125 5.671875 -1.203125 Z M 3.71875 -5 C 4.078125 -4.96875 4.25 -4.75 4.25 -4.3125 C 4.25 -2.5 3.015625 -0.4375 1.90625 -0.4375 C 1.5 -0.4375 1.21875 -0.765625 1.21875 -1.234375 C 1.21875 -2.21875 1.8125 -3.609375 2.609375 -4.453125 C 2.9375 -4.796875 3.375 -5.015625 3.71875 -5 Z M 3.71875 -5 "/>
</g>
<g id="glyph-1-0">
<path d="M 3.03125 -8.078125 C 2.375 -8.078125 1.875 -7.875 1.4375 -7.453125 C 0.734375 -6.796875 0.28125 -5.421875 0.28125 -4.015625 C 0.28125 -2.71875 0.6875 -1.3125 1.25 -0.640625 C 1.6875 -0.125 2.296875 0.171875 2.984375 0.171875 C 3.59375 0.171875 4.109375 -0.03125 4.546875 -0.453125 C 5.234375 -1.109375 5.6875 -2.5 5.6875 -3.9375 C 5.6875 -6.390625 4.609375 -8.078125 3.03125 -8.078125 Z M 3 -7.765625 C 4 -7.765625 4.546875 -6.421875 4.546875 -3.921875 C 4.546875 -1.421875 4.015625 -0.140625 2.984375 -0.140625 C 1.953125 -0.140625 1.4375 -1.421875 1.4375 -3.90625 C 1.4375 -6.4375 1.96875 -7.765625 3 -7.765625 Z M 3 -7.765625 "/>
</g>
<g id="glyph-1-1">
<path d="M 3.484375 -8.078125 L 1.328125 -7 L 1.328125 -6.828125 C 1.46875 -6.890625 1.609375 -6.9375 1.65625 -6.953125 C 1.859375 -7.046875 2.0625 -7.09375 2.1875 -7.09375 C 2.4375 -7.09375 2.546875 -6.90625 2.546875 -6.53125 L 2.546875 -1.109375 C 2.546875 -0.71875 2.453125 -0.4375 2.265625 -0.328125 C 2.078125 -0.234375 1.90625 -0.1875 1.40625 -0.171875 L 1.40625 0 L 4.703125 0 L 4.703125 -0.171875 C 3.765625 -0.1875 3.578125 -0.3125 3.578125 -0.890625 L 3.578125 -8.0625 Z M 3.484375 -8.078125 "/>
</g>
</g>
<clipPath id="clip-0">
<path clip-rule="nonzero" d="M 20 79 L 34 79 L 34 92.957031 L 20 92.957031 Z M 20 79 "/>
</clipPath>
<clipPath id="clip-1">
<path clip-rule="nonzero" d="M 48 79 L 62 79 L 62 92.957031 L 48 92.957031 Z M 48 79 "/>
</clipPath>
<clipPath id="clip-2">
<path clip-rule="nonzero" d="M 80 19 L 93.914062 19 L 93.914062 33 L 80 33 Z M 80 19 "/>
</clipPath>
</defs>
<path fill="none" stroke-width="0.8" stroke-linecap="butt" stroke-linejoin="round" stroke="rgb(0%, 0%, 0%)" stroke-opacity="1" stroke-miterlimit="10" d="M 40.000131 116 L 20.000131 88 " transform="matrix(1, 0, 0, -1, -13.0431, 138)"/>
<path fill-rule="evenodd" fill="rgb(87.5%, 87.5%, 87.5%)" fill-opacity="1" stroke-width="0.8" stroke-linecap="butt" stroke-linejoin="round" stroke="rgb(0%, 39.199829%, 0%)" stroke-opacity="1" stroke-miterlimit="10" d="M 25.656381 84 C 25.656381 87.125 23.125131 89.65625 20.000131 89.65625 C 16.875131 89.65625 14.343881 87.125 14.343881 84 C 14.343881 80.875 16.875131 78.34375 20.000131 78.34375 C 23.125131 78.34375 25.656381 80.875 25.656381 84 Z M 25.656381 84 " transform="matrix(1, 0, 0, -1, -13.0431, 138)"/>
<path fill="none" stroke-width="0.8" stroke-linecap="butt" stroke-linejoin="round" stroke="rgb(0%, 0%, 0%)" stroke-opacity="1" stroke-miterlimit="10" d="M 56.000131 88 L 40.000131 56 " transform="matrix(1, 0, 0, -1, -13.0431, 138)"/>
<path fill-rule="evenodd" fill="rgb(87.5%, 87.5%, 87.5%)" fill-opacity="1" d="M 32.613281 86 C 32.613281 82.875 30.082031 80.34375 26.957031 80.34375 C 23.832031 80.34375 21.300781 82.875 21.300781 86 C 21.300781 89.125 23.832031 91.65625 26.957031 91.65625 C 30.082031 91.65625 32.613281 89.125 32.613281 86 Z M 32.613281 86 "/>
<g clip-path="url(#clip-0)">
<path fill="none" stroke-width="0.8" stroke-linecap="butt" stroke-linejoin="round" stroke="rgb(0%, 39.199829%, 0%)" stroke-opacity="1" stroke-miterlimit="10" d="M 45.656381 52 C 45.656381 55.125 43.125131 57.65625 40.000131 57.65625 C 36.875131 57.65625 34.343881 55.125 34.343881 52 C 34.343881 48.875 36.875131 46.34375 40.000131 46.34375 C 43.125131 46.34375 45.656381 48.875 45.656381 52 Z M 45.656381 52 " transform="matrix(1, 0, 0, -1, -13.0431, 138)"/>
</g>
<path fill="none" stroke-width="0.8" stroke-linecap="butt" stroke-linejoin="round" stroke="rgb(0%, 0%, 0%)" stroke-opacity="1" stroke-miterlimit="10" d="M 56.000131 88 L 68.000131 56 " transform="matrix(1, 0, 0, -1, -13.0431, 138)"/>
<path fill-rule="evenodd" fill="rgb(87.5%, 87.5%, 87.5%)" fill-opacity="1" d="M 60.613281 86 C 60.613281 82.875 58.082031 80.34375 54.957031 80.34375 C 51.832031 80.34375 49.300781 82.875 49.300781 86 C 49.300781 89.125 51.832031 91.65625 54.957031 91.65625 C 58.082031 91.65625 60.613281 89.125 60.613281 86 Z M 60.613281 86 "/>
<g clip-path="url(#clip-1)">
<path fill="none" stroke-width="0.8" stroke-linecap="butt" stroke-linejoin="round" stroke="rgb(0%, 39.199829%, 0%)" stroke-opacity="1" stroke-miterlimit="10" d="M 73.656381 52 C 73.656381 55.125 71.125131 57.65625 68.000131 57.65625 C 64.875131 57.65625 62.343881 55.125 62.343881 52 C 62.343881 48.875 64.875131 46.34375 68.000131 46.34375 C 71.125131 46.34375 73.656381 48.875 73.656381 52 Z M 73.656381 52 " transform="matrix(1, 0, 0, -1, -13.0431, 138)"/>
</g>
<path fill="none" stroke-width="0.8" stroke-linecap="butt" stroke-linejoin="round" stroke="rgb(0%, 0%, 0%)" stroke-opacity="1" stroke-miterlimit="10" d="M 68.000131 132 L 96.000131 116 " transform="matrix(1, 0, 0, -1, -13.0431, 138)"/>
<path fill-rule="evenodd" fill="rgb(87.5%, 87.5%, 87.5%)" fill-opacity="1" d="M 92.613281 26 C 92.613281 22.875 90.082031 20.34375 86.957031 20.34375 C 83.832031 20.34375 81.300781 22.875 81.300781 26 C 81.300781 29.125 83.832031 31.65625 86.957031 31.65625 C 90.082031 31.65625 92.613281 29.125 92.613281 26 Z M 92.613281 26 "/>
<g clip-path="url(#clip-2)">
<path fill="none" stroke-width="0.8" stroke-linecap="butt" stroke-linejoin="round" stroke="rgb(0%, 39.199829%, 0%)" stroke-opacity="1" stroke-miterlimit="10" d="M 105.656381 112 C 105.656381 115.125 103.125131 117.65625 100.000131 117.65625 C 96.875131 117.65625 94.343881 115.125 94.343881 112 C 94.343881 108.875 96.875131 106.34375 100.000131 106.34375 C 103.125131 106.34375 105.656381 108.875 105.656381 112 Z M 105.656381 112 " transform="matrix(1, 0, 0, -1, -13.0431, 138)"/>
</g>
<path fill="none" stroke-width="2" stroke-linecap="butt" stroke-linejoin="round" stroke="rgb(0%, 0%, 0%)" stroke-opacity="1" stroke-miterlimit="10" d="M 68.000131 136 L 68.000131 132 " transform="matrix(1, 0, 0, -1, -13.0431, 138)"/>
<path fill="none" stroke-width="0.8" stroke-linecap="butt" stroke-linejoin="round" stroke="rgb(0%, 0%, 0%)" stroke-opacity="1" stroke-miterlimit="10" d="M 68.000131 132 L 40.000131 116 " transform="matrix(1, 0, 0, -1, -13.0431, 138)"/>
<path fill="none" stroke-width="0.8" stroke-linecap="butt" stroke-linejoin="round" stroke="rgb(0%, 0%, 0%)" stroke-opacity="1" stroke-miterlimit="10" d="M 40.000131 116 L 56.000131 88 " transform="matrix(1, 0, 0, -1, -13.0431, 138)"/>
<g fill="rgb(100%, 0%, 0%)" fill-opacity="1">
<use xlink:href="#glyph-0-0" x="3.7537" y="56.237"/>
</g>
<g fill="rgb(100%, 0%, 0%)" fill-opacity="1">
<use xlink:href="#glyph-0-1" x="24.0725" y="90.1494"/>
</g>
<g fill="rgb(100%, 0%, 0%)" fill-opacity="1">
<use xlink:href="#glyph-0-2" x="52.0725" y="88.7151"/>
</g>
<g fill="rgb(100%, 0%, 0%)" fill-opacity="1">
<use xlink:href="#glyph-0-3" x="83.5944" y="29.993"/>
</g>
<g fill="rgb(0%, 0%, 100%)" fill-opacity="1">
<use xlink:href="#glyph-1-0" x="34.9569" y="13.999"/>
</g>
<g fill="rgb(0%, 0%, 100%)" fill-opacity="1">
<use xlink:href="#glyph-1-0" x="10.9569" y="33.999"/>
</g>
<g fill="rgb(0%, 0%, 100%)" fill-opacity="1">
<use xlink:href="#glyph-1-0" x="26.9569" y="65.999"/>
</g>
<g fill="rgb(0%, 0%, 100%)" fill-opacity="1">
<use xlink:href="#glyph-1-1" x="34.9569" y="34"/>
</g>
<g fill="rgb(0%, 0%, 100%)" fill-opacity="1">
<use xlink:href="#glyph-1-1" x="50.9569" y="70"/>
</g>
<g fill="rgb(0%, 0%, 100%)" fill-opacity="1">
<use xlink:href="#glyph-1-1" x="70.9569" y="14"/>
</g>
</svg>
